<?xml version="1.0" standalone="no"?>
<!DOCTYPE svg PUBLIC "-//W3C//DTD SVG 20010904//EN"
 "http://www.w3.org/TR/2001/REC-SVG-20010904/DTD/svg10.dtd">
<svg version="1.0" xmlns="http://www.w3.org/2000/svg"
 width="1230.000000pt" height="1230.000000pt" viewBox="0 0 1230.000000 1230.000000"
 preserveAspectRatio="xMidYMid meet">
<metadata>
Created by potrace 1.11, written by Peter Selinger 2001-2013
</metadata>
<g transform="translate(0.000000,1230.000000) scale(0.100000,-0.100000)"
fill="#000000" stroke="none">
<path d="M1715 12068 c-11 -48 -1716 -10301 -1713 -10303 6 -6 6114 -1555
6131 -1555 16 0 6159 1549 6165 1554 2 3 -1719 10230 -1734 10299 l-6 27
-4419 0 -4419 0 -5 -22z m8835 -5103 l0 -5055 -4415 0 -4415 0 0 5055 0 5055
4415 0 4415 0 0 -5055z m-8881 -3007 l1 -2098 4483 -2 c2719 -1 4063 -5 3417
-9 -586 -3 -1599 -7 -2252 -8 l-1188 -1 0 -745 c0 -689 1 -745 17 -745 22 0
5956 1511 5965 1519 8 7 -1445 8897 -1455 8908 -4 3 -8 -554 -8 -1238 -1 -684
-5 -2169 -8 -3299 -7 -1922 -7 -1831 -7 1400 -1 1900 1 3444 3 3430 2 -14 347
-2095 767 -4625 419 -2530 762 -4601 761 -4603 -2 -2 -1359 -347 -3018 -766
l-3015 -764 -2997 764 c-1649 419 -2998 764 -3000 766 -1 2 340 2088 759 4636
l761 4632 6 -2527 c3 -1391 7 -3472 8 -4625z"/>
<path d="M6165 11007 l-540 -192 -6 -75 c-4 -41 -7 -146 -8 -232 l-1 -157 -74
-123 -74 -123 165 -3 c91 -1 168 0 170 2 3 2 -28 59 -67 125 l-72 121 4 215
c2 118 6 217 9 219 4 5 696 -220 707 -229 2 -1 14 -69 28 -151 14 -82 27 -150
28 -152 2 -1 56 13 119 32 198 60 295 77 486 83 l174 6 -6 138 -6 139 356 116
c212 70 350 120 342 124 -23 13 -1155 310 -1175 309 -11 -1 -262 -87 -559
-192z"/>
<path d="M7275 10369 c-16 -6 -95 -12 -175 -14 -287 -7 -618 -89 -767 -191
-35 -24 -66 -58 -94 -102 -86 -136 -180 -201 -327 -227 -51 -9 -105 -26 -143
-46 -170 -91 -135 -221 111 -404 72 -54 94 -65 126 -65 38 0 39 -1 41 -37 4
-76 60 -119 222 -169 145 -45 183 -64 218 -110 38 -50 43 -134 13 -224 -19
-58 -22 -99 -30 -370 -5 -168 -8 -305 -7 -306 1 0 62 -35 136 -76 l133 -76
-63 -6 c-35 -3 -398 -8 -807 -10 -617 -5 -747 -8 -770 -20 -52 -27 -166 -131
-219 -201 -30 -38 -70 -102 -89 -141 -65 -135 -97 -326 -56 -338 9 -3 -136 -4
-323 -2 -371 3 -421 -1 -516 -49 -29 -15 -78 -51 -109 -81 l-56 -53 -42 49
c-30 34 -65 61 -119 87 l-77 38 -488 3 -488 3 -65 -57 -65 -58 0 -1038 0
-1038 388 -1 c213 0 486 -4 607 -8 237 -7 275 -16 346 -75 l28 -24 78 39 c139
71 159 72 886 67 l637 -5 0 1016 -1 1016 -91 65 -91 65 39 6 c22 4 75 15 119
24 110 25 429 25 660 1 149 -15 195 -25 370 -76 484 -143 634 -159 829 -92 47
16 86 28 86 25 0 -10 -128 -63 -177 -73 -60 -13 -60 -8 6 -95 130 -173 415
-422 651 -569 l74 -46 14 27 c8 14 32 69 54 122 22 53 49 112 61 131 22 37 93
132 85 115 -2 -5 -34 -71 -70 -145 -124 -255 -200 -478 -236 -692 l-18 -108
-83 -40 c-107 -52 -161 -89 -244 -169 -88 -85 -104 -113 -114 -197 -17 -138
17 -223 105 -268 26 -13 61 -27 78 -30 35 -8 2112 22 2125 30 17 10 119 191
188 333 324 665 316 1260 -25 1812 -127 204 -281 378 -450 504 -288 217 -532
506 -711 841 -60 112 -91 156 -237 339 -218 274 -483 559 -635 684 -57 47 -69
62 -98 135 -18 44 -38 98 -44 119 -14 51 3 107 40 135 16 12 41 46 56 77 23
45 26 64 22 100 -13 92 -63 156 -157 199 -46 22 -69 26 -140 25 -47 0 -98 -5
-115 -10z m-700 -459 c34 -13 43 -39 20 -56 -44 -32 -173 -7 -159 31 11 29 91
43 139 25z m-328 -576 c-3 -3 -12 -4 -19 -1 -8 3 -5 6 6 6 11 1 17 -2 13 -5z
m-64 -11 c-7 -2 -19 -2 -25 0 -7 3 -2 5 12 5 14 0 19 -2 13 -5z m-2653 -3113
l0 -920 -445 0 -445 0 0 920 0 920 445 0 445 0 0 -920z m1510 30 l0 -880 -520
0 -520 0 0 880 0 880 520 0 520 0 0 -880z"/>
<path d="M2760 6855 l0 -45 335 0 335 0 0 45 0 45 -335 0 -335 0 0 -45z"/>
<path d="M2760 6525 l0 -45 335 0 335 0 0 45 0 45 -335 0 -335 0 0 -45z"/>
<path d="M2767 6243 c-4 -3 -7 -26 -7 -50 l0 -43 330 0 330 0 0 50 0 50 -323
0 c-178 0 -327 -3 -330 -7z"/>
<path d="M2770 5870 l0 -50 325 0 325 0 0 50 0 50 -325 0 -325 0 0 -50z"/>
<path d="M2770 5545 l0 -45 325 0 325 0 0 45 0 45 -325 0 -325 0 0 -45z"/>
<path d="M4200 6840 l0 -50 341 0 340 0 -3 48 -3 47 -337 3 -338 2 0 -50z"/>
<path d="M4204 6546 c-3 -8 -4 -29 -2 -48 l3 -33 333 -3 332 -2 0 50 0 50
-330 0 c-275 0 -332 -2 -336 -14z"/>
<path d="M4210 6185 l0 -45 330 0 330 0 0 45 0 45 -330 0 -330 0 0 -45z"/>
<path d="M4210 5855 l0 -45 330 0 330 0 0 45 0 45 -330 0 -330 0 0 -45z"/>
<path d="M4214 5566 c-3 -8 -4 -29 -2 -48 l3 -33 323 -3 322 -2 0 50 0 50
-320 0 c-266 0 -322 -2 -326 -14z"/>
<path d="M3680 9685 c-3 -30 -217 -1095 -221 -1099 -2 -2 -209 -36 -459 -76
-250 -40 -459 -76 -463 -80 -4 -4 199 -58 453 -121 253 -62 465 -116 470 -119
5 -3 56 -219 114 -479 58 -261 108 -476 110 -479 6 -5 -2 -39 115 466 54 232
101 425 104 428 2 3 508 70 1123 149 1282 165 1167 149 1134 158 -14 3 -529
52 -1145 107 -616 56 -1123 105 -1126 108 -3 4 -48 232 -99 507 -84 451 -107
561 -110 530z m0 -750 l0 -505 -432 1 -433 1 330 54 c181 29 334 55 341 58 6
2 51 205 100 450 49 245 90 446 91 446 2 0 3 -227 3 -505z m2135 -512 c-11 -2
-454 -59 -984 -128 -530 -68 -964 -125 -965 -127 -2 -2 -40 -165 -85 -363 -46
-198 -85 -362 -87 -364 -2 -2 -4 219 -4 492 l0 497 1073 -1 c589 -1 1063 -3
1052 -6z"/>
<path d="M6380 7104 c0 -46 -174 -1272 -186 -1314 -36 -125 -95 -205 -185
-251 -83 -41 -122 -80 -153 -148 -31 -69 -56 -188 -56 -266 l0 -52 43 -6 c23
-3 141 -14 263 -23 250 -20 252 -20 363 54 144 95 219 193 680 876 l350 519
-58 41 c-150 104 -295 250 -385 387 l-37 56 -94 6 c-52 4 -139 16 -195 27 -88
18 -283 74 -332 95 -10 4 -18 3 -18 -1z"/>
<path d="M2200 4400 l0 -70 74 0 c66 0 77 -3 90 -22 14 -20 16 -108 16 -755 0
-852 11 -773 -110 -773 l-70 0 0 -70 0 -70 338 2 337 3 3 68 3 67 -69 0 c-54
0 -75 4 -93 19 l-24 19 -3 679 c-3 701 -1 793 25 818 12 12 53 15 233 15 219
0 220 0 235 -24 14 -20 15 -110 13 -760 -3 -849 9 -766 -110 -766 l-68 0 0
-70 0 -70 338 2 337 3 3 68 3 67 -69 0 c-54 0 -75 4 -93 19 l-24 19 -3 689
c-3 671 -1 772 18 803 6 10 33 17 87 20 l78 5 3 68 3 67 -751 0 -750 0 0 -70z"/>
<path d="M3820 4400 l0 -70 73 0 c39 0 77 -4 84 -8 31 -20 33 -70 33 -767 0
-697 -2 -747 -33 -767 -7 -4 -45 -8 -85 -8 l-73 0 3 -67 3 -68 330 0 330 0 3
68 3 67 -59 0 c-70 0 -90 13 -102 65 -5 22 -10 196 -10 388 l0 347 245 0 246
0 -3 -381 -3 -381 -24 -19 c-16 -13 -39 -19 -77 -19 l-54 0 0 -70 0 -70 333 2
332 3 0 65 0 65 -75 5 c-41 3 -80 9 -87 13 -30 19 -33 92 -33 762 0 670 3 743
33 762 7 4 46 10 87 13 l75 5 0 65 0 65 -332 3 -333 2 0 -70 0 -70 58 0 c99 0
96 9 100 -331 l3 -289 -246 0 -245 0 0 258 c0 267 7 328 36 349 10 7 44 13 76
13 l58 0 0 70 0 70 -335 0 -335 0 0 -70z"/>
<path d="M5440 4400 l0 -70 74 0 c66 0 77 -3 90 -22 14 -20 16 -108 16 -755 0
-852 11 -773 -110 -773 l-70 0 0 -70 0 -70 338 2 337 3 3 68 3 67 -71 0 c-90
0 -106 14 -115 102 -4 34 -5 79 -3 98 2 23 88 194 238 474 l235 438 3 -473 c2
-261 0 -503 -3 -537 -9 -88 -25 -102 -115 -102 l-71 0 3 -67 3 -68 338 -3 337
-2 0 70 0 70 -68 0 c-119 0 -107 -84 -110 769 -3 862 -14 781 108 781 l70 0 0
70 0 70 -340 0 -340 0 0 -70 0 -70 73 0 c39 0 78 -4 86 -9 16 -10 30 -77 31
-148 0 -49 -13 -77 -237 -495 l-238 -443 -3 470 c-3 496 0 586 25 610 10 11
36 15 89 15 l74 0 0 70 0 70 -340 0 -340 0 0 -70z"/>
<path d="M7030 4400 l0 -70 74 0 c66 0 77 -3 90 -22 14 -20 16 -108 16 -755 0
-852 11 -773 -110 -773 l-70 0 0 -70 0 -70 338 2 337 3 3 68 3 67 -69 0 c-83
0 -101 12 -113 71 -10 56 -11 1347 0 1413 5 26 14 52 22 57 8 5 112 9 231 9
213 0 217 0 232 -22 14 -20 16 -108 16 -755 0 -852 11 -773 -110 -773 l-70 0
0 -70 0 -70 338 2 337 3 3 68 3 67 -69 0 c-54 0 -75 4 -93 19 l-24 19 -3 679
c-3 661 0 783 18 813 6 10 34 17 87 20 l78 5 3 68 3 67 -751 0 -750 0 0 -70z"/>
<path d="M8640 4401 l0 -68 38 -7 c51 -8 107 -48 135 -99 33 -57 487 -1208
487 -1232 0 -54 -91 -201 -148 -240 -87 -59 -231 -12 -232 76 0 30 10 40 60
59 19 7 46 23 59 34 64 57 85 199 42 289 -32 66 -71 92 -143 92 -48 0 -62 -5
-95 -31 -75 -60 -101 -119 -110 -244 -9 -127 31 -248 113 -339 62 -68 120 -94
214 -95 58 -1 84 4 115 21 56 29 128 109 165 183 17 35 146 350 285 701 140
351 266 661 280 688 39 78 81 120 126 127 l39 7 0 73 0 74 -255 0 -255 0 0
-69 0 -68 66 -6 c109 -8 147 -56 125 -158 -6 -27 -55 -172 -110 -322 -148
-406 -153 -419 -161 -410 -4 4 -74 180 -154 390 -156 407 -166 450 -123 477
12 8 48 17 80 21 56 6 57 7 57 38 0 18 3 49 6 70 l7 37 -357 0 -356 0 0 -69z"/>
<path d="M1618 10770 c-10 -36 -1458 -8872 -1458 -8896 0 -18 269 -88 2968
-772 1632 -414 2973 -752 2980 -752 9 0 12 156 12 745 l0 745 -2239 0 -2238 0
-9 4478 c-5 2462 -12 4466 -16 4452z"/>
</g>
</svg>
